<svg width="36" height="36" viewBox="0 0 36 36" fill="none" xmlns="http://www.w3.org/2000/svg">
<path d="M33.3039 6.20679H2.69613C1.20705 6.20679 0 7.41384 0 8.90292V27.0969C0 28.5859 1.20705 29.793 2.69613 29.793H33.3039C34.7929 29.793 36 28.586 36 27.0969V8.90292C36 7.41384 34.7929 6.20679 33.3039 6.20679Z" fill="#F5F5F5"/>
<path d="M0.148438 8.02113H35.8518C35.4864 6.96525 34.4841 6.20679 33.304 6.20679H2.69628C1.51616 6.20679 0.513852 6.96525 0.148438 8.02113Z" fill="#FF4B55"/>
<path d="M36 13.4641H0V15.2784H36V13.4641Z" fill="#FF4B55"/>
<path d="M36 9.83521H0V11.6495H36V9.83521Z" fill="#FF4B55"/>
<path d="M0 18.2864C0 18.6292 0.277945 18.9071 0.620719 18.9071H36V17.0928H0V18.2864Z" fill="#FF4B55"/>
<path d="M36 24.3503H0V26.1647H36V24.3503Z" fill="#FF4B55"/>
<path d="M35.8519 27.9785H0.148438C0.513852 29.0344 1.51623 29.7929 2.69628 29.7929H33.304C34.4841 29.7929 35.4864 29.0344 35.8519 27.9785Z" fill="#FF4B55"/>
<path d="M36 20.7217H0V22.536H36V20.7217Z" fill="#FF4B55"/>
<path d="M0.620719 18.9071H16.138C16.4808 18.9071 16.7587 18.6292 16.7587 18.2864V6.82751C16.7587 6.48466 16.4808 6.20679 16.138 6.20679H2.69613C1.20705 6.20686 0 7.41391 0 8.90299V18.2864C0 18.6292 0.277945 18.9071 0.620719 18.9071Z" fill="#41479B"/>
<path d="M1.74279 7.63181L1.88018 8.04384L2.3145 8.04715C2.37075 8.04764 2.39402 8.11936 2.34881 8.15276L1.99943 8.41073L2.13049 8.82481C2.14751 8.87838 2.08641 8.92282 2.04063 8.89006L1.68731 8.63756L1.33399 8.89013C1.28822 8.92289 1.22726 8.87845 1.24413 8.82488L1.3752 8.41081L1.02581 8.15283C0.980603 8.11936 1.00388 8.04764 1.06013 8.04722L1.49445 8.04391L1.63184 7.63188C1.64956 7.57845 1.72493 7.57845 1.74279 7.63181Z" fill="#F5F5F5"/>
<path d="M1.74279 9.78679L1.88018 10.1988L2.3145 10.2021C2.37075 10.2026 2.39402 10.2743 2.34881 10.3077L1.99943 10.5658L2.13049 10.9799C2.14751 11.0334 2.08641 11.0779 2.04063 11.0451L1.68731 10.7926L1.33399 11.0452C1.28822 11.0779 1.22726 11.0335 1.24413 10.9799L1.3752 10.5659L1.02581 10.3078C0.980603 10.2743 1.00388 10.2027 1.06013 10.2022L1.49445 10.1989L1.63184 9.78686C1.64956 9.73349 1.72493 9.73349 1.74279 9.78679Z" fill="#F5F5F5"/>
<path d="M1.74279 11.9424L1.88018 12.3544L2.3145 12.3577C2.37075 12.3582 2.39402 12.4298 2.34881 12.4633L1.99943 12.7214L2.13049 13.1354C2.14751 13.189 2.08641 13.2334 2.04063 13.2007L1.68731 12.9482L1.33399 13.2007C1.28822 13.2334 1.22726 13.1891 1.24413 13.1355L1.3752 12.7214L1.02581 12.4634C0.980603 12.4299 1.00388 12.3583 1.06013 12.3578L1.49445 12.3545L1.63184 11.9424C1.64956 11.889 1.72493 11.889 1.74279 11.9424Z" fill="#F5F5F5"/>
<path d="M1.74279 14.0976L1.88018 14.5097L2.3145 14.513C2.37075 14.5135 2.39402 14.5852 2.34881 14.6186L1.99943 14.8766L2.13049 15.2907C2.14751 15.3443 2.08641 15.3887 2.04063 15.3559L1.68731 15.1034L1.33399 15.356C1.28822 15.3887 1.22726 15.3443 1.24413 15.2908L1.3752 14.8767L1.02581 14.6186C0.980603 14.5853 1.00388 14.5135 1.06013 14.513L1.49445 14.5097L1.63184 14.0977C1.64956 14.0443 1.72493 14.0443 1.74279 14.0976Z" fill="#F5F5F5"/>
<path d="M1.74279 16.2531L1.88018 16.6651L2.3145 16.6684C2.37075 16.6689 2.39402 16.7406 2.34881 16.774L1.99943 17.0321L2.13049 17.4462C2.14751 17.4997 2.08641 17.5442 2.04063 17.5114L1.68731 17.2589L1.33399 17.5115C1.28822 17.5442 1.22726 17.4998 1.24413 17.4462L1.3752 17.0322L1.02581 16.7741C0.980603 16.7406 1.00388 16.669 1.06013 16.6685L1.49445 16.6652L1.63184 16.2532C1.64956 16.1998 1.72493 16.1998 1.74279 16.2531Z" fill="#F5F5F5"/>
<path d="M3.41564 8.68817L3.55303 9.1002L3.98735 9.1035C4.0436 9.104 4.06688 9.17572 4.02166 9.20911L3.67228 9.46716L3.80334 9.88123C3.82036 9.93481 3.75926 9.97925 3.71349 9.94648L3.36017 9.69392L3.00685 9.94648C2.96107 9.97918 2.90011 9.93481 2.91699 9.88123L3.04805 9.46716L2.69867 9.20911C2.65345 9.17564 2.67673 9.104 2.73298 9.1035L3.1673 9.1002L3.30469 8.68817C3.32241 8.63487 3.39785 8.63487 3.41564 8.68817Z" fill="#F5F5F5"/>
<path d="M3.41564 10.8437L3.55303 11.2558L3.98735 11.2591C4.0436 11.2596 4.06688 11.3313 4.02166 11.3647L3.67228 11.6227L3.80334 12.0368C3.82036 12.0904 3.75926 12.1348 3.71349 12.102L3.36017 11.8495L3.00685 12.102C2.96107 12.1347 2.90011 12.0904 2.91699 12.0368L3.04805 11.6227L2.69867 11.3647C2.65345 11.3314 2.67673 11.2596 2.73298 11.2591L3.1673 11.2558L3.30469 10.8437C3.32241 10.7904 3.39785 10.7904 3.41564 10.8437Z" fill="#F5F5F5"/>
<path d="M3.41564 12.999L3.55303 13.411L3.98735 13.4143C4.0436 13.4148 4.06688 13.4865 4.02166 13.52L3.67228 13.778L3.80334 14.1921C3.82036 14.2457 3.75926 14.2901 3.71349 14.2573L3.36017 14.0048L3.00685 14.2573C2.96107 14.29 2.90011 14.2457 2.91699 14.1921L3.04805 13.778L2.69867 13.52C2.65345 13.4865 2.67673 13.4148 2.73298 13.4143L3.1673 13.411L3.30469 12.999C3.32241 12.9456 3.39785 12.9456 3.41564 12.999Z" fill="#F5F5F5"/>
<path d="M3.41564 15.1545L3.55303 15.5665L3.98735 15.5698C4.0436 15.5703 4.06688 15.642 4.02166 15.6754L3.67228 15.9335L3.80334 16.3475C3.82036 16.4011 3.75926 16.4456 3.71349 16.4128L3.36017 16.1602L3.00685 16.4128C2.96107 16.4456 2.90011 16.4011 2.91699 16.3475L3.04805 15.9335L2.69867 15.6754C2.65345 15.642 2.67673 15.5703 2.73298 15.5698L3.1673 15.5665L3.30469 15.1545C3.32241 15.1012 3.39785 15.1012 3.41564 15.1545Z" fill="#F5F5F5"/>
<path d="M5.08849 7.63158L5.22588 8.04361L5.6602 8.04691C5.71645 8.04741 5.73973 8.11913 5.69452 8.15252L5.34513 8.4105L5.4762 8.82457C5.49321 8.87815 5.43211 8.92259 5.38634 8.88982L5.03302 8.63726L4.6797 8.88982C4.63392 8.92259 4.57296 8.87815 4.58984 8.82457L4.7209 8.4105L4.37152 8.15252C4.32631 8.11906 4.34958 8.04734 4.40583 8.04691L4.84015 8.04361L4.97754 7.63158C4.99526 7.57821 5.0707 7.57821 5.08849 7.63158Z" fill="#F5F5F5"/>
<path d="M5.08849 9.7868L5.22588 10.1988L5.6602 10.2021C5.71645 10.2026 5.73973 10.2743 5.69452 10.3077L5.34513 10.5658L5.4762 10.9799C5.49321 11.0334 5.43211 11.0779 5.38634 11.0451L5.03302 10.7925L4.6797 11.0451C4.63392 11.0778 4.57296 11.0334 4.58984 10.9799L4.7209 10.5658L4.37152 10.3077C4.32631 10.2743 4.34958 10.2026 4.40583 10.2021L4.84015 10.1988L4.97754 9.7868C4.99526 9.7335 5.0707 9.7335 5.08849 9.7868Z" fill="#F5F5F5"/>
<path d="M5.08849 11.9424L5.22588 12.3544L5.6602 12.3577C5.71645 12.3582 5.73973 12.4298 5.69452 12.4633L5.34513 12.7214L5.4762 13.1354C5.49321 13.189 5.43211 13.2334 5.38634 13.2007L5.03302 12.9481L4.6797 13.2007C4.63392 13.2334 4.57296 13.1891 4.58984 13.1354L4.7209 12.7214L4.37152 12.4633C4.32631 12.4298 4.34958 12.3582 4.40583 12.3577L4.84015 12.3544L4.97754 11.9424C4.99526 11.889 5.0707 11.889 5.08849 11.9424Z" fill="#F5F5F5"/>
<path d="M5.08849 14.0976L5.22588 14.5097L5.6602 14.513C5.71645 14.5135 5.73973 14.5852 5.69452 14.6186L5.34513 14.8766L5.4762 15.2907C5.49321 15.3443 5.43211 15.3887 5.38634 15.356L5.03302 15.1034L4.6797 15.356C4.63392 15.3887 4.57296 15.3443 4.58984 15.2907L4.7209 14.8766L4.37152 14.6186C4.32631 14.5853 4.34958 14.5135 4.40583 14.513L4.84015 14.5097L4.97754 14.0976C4.99526 14.0443 5.0707 14.0443 5.08849 14.0976Z" fill="#F5F5F5"/>
<path d="M5.08849 16.2531L5.22588 16.6651L5.6602 16.6684C5.71645 16.6689 5.73973 16.7406 5.69452 16.7741L5.34513 17.0321L5.4762 17.4462C5.49321 17.4997 5.43211 17.5442 5.38634 17.5114L5.03302 17.2589L4.6797 17.5114C4.63392 17.5441 4.57296 17.4997 4.58984 17.4462L4.7209 17.0321L4.37152 16.7741C4.32631 16.7406 4.34958 16.6689 4.40583 16.6684L4.84015 16.6651L4.97754 16.2531C4.99526 16.1998 5.0707 16.1998 5.08849 16.2531Z" fill="#F5F5F5"/>
<path d="M6.76135 8.68817L6.89874 9.1002L7.33306 9.1035C7.38931 9.104 7.41258 9.17572 7.36737 9.20911L7.01799 9.46716L7.14905 9.88123C7.16606 9.93481 7.10496 9.97925 7.05919 9.94648L6.70587 9.69392L6.35255 9.94648C6.30678 9.97918 6.24581 9.93481 6.26269 9.88123L6.39375 9.46716L6.04437 9.20911C5.99916 9.17564 6.02243 9.104 6.07868 9.1035L6.513 9.1002L6.65039 8.68817C6.66804 8.63487 6.74356 8.63487 6.76135 8.68817Z" fill="#F5F5F5"/>
<path d="M6.76135 10.8437L6.89874 11.2558L7.33306 11.2591C7.38931 11.2596 7.41258 11.3313 7.36737 11.3647L7.01799 11.6227L7.14905 12.0368C7.16606 12.0904 7.10496 12.1348 7.05919 12.102L6.70587 11.8495L6.35255 12.102C6.30678 12.1347 6.24581 12.0904 6.26269 12.0368L6.39375 11.6227L6.04437 11.3647C5.99916 11.3314 6.02243 11.2596 6.07868 11.2591L6.513 11.2558L6.65039 10.8437C6.66804 10.7904 6.74356 10.7904 6.76135 10.8437Z" fill="#F5F5F5"/>
<path d="M6.76135 12.999L6.89874 13.411L7.33306 13.4143C7.38931 13.4148 7.41258 13.4865 7.36737 13.52L7.01799 13.778L7.14905 14.1921C7.16606 14.2457 7.10496 14.2901 7.05919 14.2573L6.70587 14.0048L6.35255 14.2573C6.30678 14.29 6.24581 14.2457 6.26269 14.1921L6.39375 13.778L6.04437 13.52C5.99916 13.4865 6.02243 13.4148 6.07868 13.4143L6.513 13.411L6.65039 12.999C6.66804 12.9456 6.74356 12.9456 6.76135 12.999Z" fill="#F5F5F5"/>
<path d="M6.76135 15.1545L6.89874 15.5665L7.33306 15.5698C7.38931 15.5703 7.41258 15.642 7.36737 15.6754L7.01799 15.9335L7.14905 16.3475C7.16606 16.4011 7.10496 16.4456 7.05919 16.4128L6.70587 16.1602L6.35255 16.4128C6.30678 16.4456 6.24581 16.4011 6.26269 16.3475L6.39375 15.9335L6.04437 15.6754C5.99916 15.642 6.02243 15.5703 6.07868 15.5698L6.513 15.5665L6.65039 15.1545C6.66804 15.1012 6.74356 15.1012 6.76135 15.1545Z" fill="#F5F5F5"/>
<path d="M8.43427 7.63157L8.57166 8.0436L9.00598 8.0469C9.06223 8.0474 9.0855 8.11912 9.04029 8.15251L8.69091 8.41049L8.82197 8.82456C8.83899 8.87814 8.77789 8.92258 8.73211 8.88981L8.37872 8.63732L8.0254 8.88988C7.97963 8.92265 7.91867 8.87821 7.93554 8.82463L8.0666 8.41056L7.71722 8.15258C7.67201 8.11912 7.69528 8.0474 7.75153 8.04698L8.18585 8.04367L8.32325 7.63164C8.34103 7.5782 8.41648 7.5782 8.43427 7.63157Z" fill="#F5F5F5"/>
<path d="M8.43427 9.7868L8.57166 10.1988L9.00598 10.2021C9.06223 10.2026 9.0855 10.2743 9.04029 10.3077L8.69091 10.5658L8.82197 10.9799C8.83899 11.0334 8.77789 11.0779 8.73211 11.0451L8.37872 10.7925L8.0254 11.0451C7.97963 11.0778 7.91867 11.0334 7.93554 10.9799L8.0666 10.5658L7.71722 10.3077C7.67201 10.2743 7.69528 10.2026 7.75153 10.2021L8.18585 10.1988L8.32325 9.7868C8.34103 9.7335 8.41648 9.7335 8.43427 9.7868Z" fill="#F5F5F5"/>
<path d="M8.43427 11.9424L8.57166 12.3544L9.00598 12.3577C9.06223 12.3582 9.0855 12.4299 9.04029 12.4633L8.69091 12.7214L8.82197 13.1354C8.83899 13.189 8.77789 13.2335 8.73211 13.2007L8.37872 12.9481L8.0254 13.2006C7.97963 13.2333 7.91867 13.1889 7.93554 13.1354L8.0666 12.7213L7.71722 12.4633C7.67201 12.4298 7.69528 12.3581 7.75153 12.3576L8.18585 12.3543L8.32325 11.9423C8.34103 11.889 8.41648 11.889 8.43427 11.9424Z" fill="#F5F5F5"/>
<path d="M8.43427 14.0976L8.57166 14.5097L9.00598 14.513C9.06223 14.5135 9.0855 14.5852 9.04029 14.6186L8.69091 14.8766L8.82197 15.2907C8.83899 15.3443 8.77789 15.3887 8.73211 15.356L8.37872 15.1034L8.0254 15.356C7.97963 15.3887 7.91867 15.3443 7.93554 15.2907L8.0666 14.8766L7.71722 14.6186C7.67201 14.5853 7.69528 14.5135 7.75153 14.513L8.18585 14.5097L8.32325 14.0976C8.34103 14.0443 8.41648 14.0443 8.43427 14.0976Z" fill="#F5F5F5"/>
<path d="M8.43427 16.2531L8.57166 16.6651L9.00598 16.6684C9.06223 16.6689 9.0855 16.7406 9.04029 16.7741L8.69091 17.0321L8.82197 17.4462C8.83899 17.4997 8.77789 17.5442 8.73211 17.5114L8.37872 17.2589L8.0254 17.5114C7.97963 17.5441 7.91867 17.4997 7.93554 17.4462L8.0666 17.0321L7.71722 16.7741C7.67201 16.7406 7.69528 16.6689 7.75153 16.6684L8.18585 16.6651L8.32325 16.2531C8.34103 16.1998 8.41648 16.1998 8.43427 16.2531Z" fill="#F5F5F5"/>
<path d="M10.107 8.68817L10.2444 9.1002L10.6788 9.1035C10.735 9.104 10.7583 9.17572 10.7131 9.20911L10.3637 9.46716L10.4947 9.88123C10.5118 9.93481 10.4507 9.97925 10.4049 9.94648L10.0516 9.69392L9.69825 9.94648C9.65248 9.97918 9.59152 9.93481 9.60839 9.88123L9.73945 9.46716L9.39007 9.20911C9.34486 9.17564 9.36813 9.104 9.42438 9.1035L9.8587 9.1002L9.99609 8.68817C10.0139 8.63487 10.0893 8.63487 10.107 8.68817Z" fill="#F5F5F5"/>
<path d="M10.107 10.8437L10.2444 11.2558L10.6788 11.2591C10.735 11.2596 10.7583 11.3313 10.7131 11.3647L10.3637 11.6227L10.4947 12.0368C10.5118 12.0904 10.4507 12.1348 10.4049 12.102L10.0516 11.8495L9.69825 12.102C9.65248 12.1347 9.59152 12.0904 9.60839 12.0368L9.73945 11.6227L9.39007 11.3647C9.34486 11.3314 9.36813 11.2596 9.42438 11.2591L9.8587 11.2558L9.99609 10.8437C10.0139 10.7904 10.0893 10.7904 10.107 10.8437Z" fill="#F5F5F5"/>
<path d="M10.107 12.999L10.2444 13.411L10.6788 13.4143C10.735 13.4148 10.7583 13.4865 10.7131 13.52L10.3637 13.778L10.4947 14.1921C10.5118 14.2457 10.4507 14.2901 10.4049 14.2573L10.0516 14.0048L9.69825 14.2573C9.65248 14.29 9.59152 14.2457 9.60839 14.1921L9.73945 13.778L9.39007 13.52C9.34486 13.4865 9.36813 13.4148 9.42438 13.4143L9.8587 13.411L9.99609 12.999C10.0139 12.9456 10.0893 12.9456 10.107 12.999Z" fill="#F5F5F5"/>
<path d="M10.107 15.1545L10.2444 15.5665L10.6788 15.5698C10.735 15.5703 10.7583 15.642 10.7131 15.6754L10.3637 15.9335L10.4947 16.3475C10.5118 16.4011 10.4507 16.4456 10.4049 16.4128L10.0516 16.1602L9.69825 16.4128C9.65248 16.4456 9.59152 16.4011 9.60839 16.3475L9.73945 15.9335L9.39007 15.6754C9.34486 15.642 9.36813 15.5703 9.42438 15.5698L9.8587 15.5665L9.99609 15.1545C10.0139 15.1012 10.0893 15.1012 10.107 15.1545Z" fill="#F5F5F5"/>
<path d="M11.7809 7.63158L11.9183 8.04361L12.3526 8.04691C12.4088 8.04741 12.4321 8.11913 12.3869 8.15252L12.0375 8.4105L12.1686 8.82457C12.1856 8.87815 12.1245 8.92259 12.0787 8.88982L11.7254 8.63726L11.3721 8.88982C11.3263 8.92259 11.2653 8.87815 11.2822 8.82457L11.4133 8.4105L11.0639 8.15252C11.0187 8.11906 11.042 8.04734 11.0982 8.04691L11.5325 8.04361L11.6699 7.63158C11.6876 7.57821 11.7631 7.57821 11.7809 7.63158Z" fill="#F5F5F5"/>
<path d="M11.7809 9.7868L11.9183 10.1988L12.3526 10.2021C12.4088 10.2026 12.4321 10.2743 12.3869 10.3077L12.0375 10.5658L12.1686 10.9799C12.1856 11.0334 12.1245 11.0779 12.0787 11.0451L11.7254 10.7925L11.3721 11.0451C11.3263 11.0778 11.2653 11.0334 11.2822 10.9799L11.4133 10.5658L11.0639 10.3077C11.0187 10.2743 11.042 10.2026 11.0982 10.2021L11.5325 10.1988L11.6699 9.7868C11.6876 9.7335 11.7631 9.7335 11.7809 9.7868Z" fill="#F5F5F5"/>
<path d="M11.7809 11.9424L11.9183 12.3544L12.3526 12.3577C12.4088 12.3582 12.4321 12.4298 12.3869 12.4633L12.0375 12.7214L12.1686 13.1354C12.1856 13.189 12.1245 13.2334 12.0787 13.2007L11.7254 12.9481L11.3721 13.2007C11.3263 13.2334 11.2653 13.1891 11.2822 13.1354L11.4133 12.7214L11.0639 12.4633C11.0187 12.4298 11.042 12.3582 11.0982 12.3577L11.5325 12.3544L11.6699 11.9424C11.6876 11.889 11.7631 11.889 11.7809 11.9424Z" fill="#F5F5F5"/>
<path d="M11.7809 14.0976L11.9183 14.5097L12.3526 14.513C12.4088 14.5135 12.4321 14.5852 12.3869 14.6186L12.0375 14.8766L12.1686 15.2907C12.1856 15.3443 12.1245 15.3887 12.0787 15.356L11.7254 15.1034L11.3721 15.356C11.3263 15.3887 11.2653 15.3443 11.2822 15.2907L11.4133 14.8766L11.0639 14.6186C11.0187 14.5853 11.042 14.5135 11.0982 14.513L11.5325 14.5097L11.6699 14.0976C11.6876 14.0443 11.7631 14.0443 11.7809 14.0976Z" fill="#F5F5F5"/>
<path d="M11.7809 16.2531L11.9183 16.6651L12.3526 16.6684C12.4088 16.6689 12.4321 16.7406 12.3869 16.7741L12.0375 17.0321L12.1686 17.4462C12.1856 17.4997 12.1245 17.5442 12.0787 17.5114L11.7254 17.2589L11.3721 17.5114C11.3263 17.5441 11.2653 17.4997 11.2822 17.4462L11.4133 17.0321L11.0639 16.7741C11.0187 16.7406 11.042 16.6689 11.0982 16.6684L11.5325 16.6651L11.6699 16.2531C11.6876 16.1998 11.7631 16.1998 11.7809 16.2531Z" fill="#F5F5F5"/>
<path d="M13.4537 8.68817L13.5911 9.1002L14.0254 9.1035C14.0817 9.104 14.105 9.17572 14.0597 9.20911L13.7104 9.46716L13.8414 9.88123C13.8584 9.93481 13.7973 9.97925 13.7516 9.94648L13.3982 9.69392L13.0449 9.94648C12.9992 9.97918 12.9382 9.93481 12.9551 9.88123L13.0861 9.46716L12.7368 9.20911C12.6915 9.17564 12.7148 9.104 12.7711 9.1035L13.2054 9.1002L13.3428 8.68817C13.3605 8.63487 13.4359 8.63487 13.4537 8.68817Z" fill="#F5F5F5"/>
<path d="M13.4537 10.8437L13.5911 11.2558L14.0254 11.2591C14.0817 11.2596 14.105 11.3313 14.0597 11.3647L13.7104 11.6227L13.8414 12.0368C13.8584 12.0904 13.7973 12.1348 13.7516 12.102L13.3982 11.8495L13.0449 12.102C12.9992 12.1347 12.9382 12.0904 12.9551 12.0368L13.0861 11.6227L12.7368 11.3647C12.6915 11.3314 12.7148 11.2596 12.7711 11.2591L13.2054 11.2558L13.3428 10.8437C13.3605 10.7904 13.4359 10.7904 13.4537 10.8437Z" fill="#F5F5F5"/>
<path d="M13.4537 12.999L13.5911 13.411L14.0254 13.4143C14.0817 13.4148 14.105 13.4865 14.0597 13.52L13.7104 13.778L13.8414 14.1921C13.8584 14.2457 13.7973 14.2901 13.7516 14.2573L13.3982 14.0048L13.0449 14.2573C12.9992 14.29 12.9382 14.2457 12.9551 14.1921L13.0861 13.778L12.7368 13.52C12.6915 13.4865 12.7148 13.4148 12.7711 13.4143L13.2054 13.411L13.3428 12.999C13.3605 12.9456 13.4359 12.9456 13.4537 12.999Z" fill="#F5F5F5"/>
<path d="M13.4537 15.1545L13.5911 15.5665L14.0254 15.5698C14.0817 15.5703 14.105 15.642 14.0597 15.6754L13.7104 15.9335L13.8414 16.3475C13.8584 16.4011 13.7973 16.4456 13.7516 16.4128L13.3982 16.1602L13.0449 16.4128C12.9992 16.4456 12.9382 16.4011 12.9551 16.3475L13.0861 15.9335L12.7368 15.6754C12.6915 15.642 12.7148 15.5703 12.7711 15.5698L13.2054 15.5665L13.3428 15.1545C13.3605 15.1012 13.4359 15.1012 13.4537 15.1545Z" fill="#F5F5F5"/>
<path d="M15.1266 7.63158L15.264 8.04361L15.6983 8.04691C15.7545 8.04741 15.7778 8.11913 15.7326 8.15252L15.3832 8.4105L15.5143 8.82457C15.5313 8.87815 15.4702 8.92259 15.4244 8.88982L15.0711 8.63726L14.7178 8.88982C14.672 8.92259 14.611 8.87815 14.6279 8.82457L14.759 8.4105L14.4096 8.15252C14.3644 8.11906 14.3877 8.04734 14.4439 8.04691L14.8782 8.04361L15.0156 7.63158C15.0333 7.57821 15.1087 7.57821 15.1266 7.63158Z" fill="#F5F5F5"/>
<path d="M15.1266 9.7868L15.264 10.1988L15.6983 10.2021C15.7545 10.2026 15.7778 10.2743 15.7326 10.3077L15.3832 10.5658L15.5143 10.9799C15.5313 11.0334 15.4702 11.0779 15.4244 11.0451L15.0711 10.7925L14.7178 11.0451C14.672 11.0778 14.611 11.0334 14.6279 10.9799L14.759 10.5658L14.4096 10.3077C14.3644 10.2743 14.3877 10.2026 14.4439 10.2021L14.8782 10.1988L15.0156 9.7868C15.0333 9.7335 15.1087 9.7335 15.1266 9.7868Z" fill="#F5F5F5"/>
<path d="M15.1266 11.9424L15.264 12.3544L15.6983 12.3577C15.7545 12.3582 15.7778 12.4298 15.7326 12.4633L15.3832 12.7214L15.5143 13.1354C15.5313 13.189 15.4702 13.2334 15.4244 13.2007L15.0711 12.9481L14.7178 13.2007C14.672 13.2334 14.611 13.1891 14.6279 13.1354L14.759 12.7214L14.4096 12.4633C14.3644 12.4298 14.3877 12.3582 14.4439 12.3577L14.8782 12.3544L15.0156 11.9424C15.0333 11.889 15.1087 11.889 15.1266 11.9424Z" fill="#F5F5F5"/>
<path d="M15.1266 14.0976L15.264 14.5097L15.6983 14.513C15.7545 14.5135 15.7778 14.5852 15.7326 14.6186L15.3832 14.8766L15.5143 15.2907C15.5313 15.3443 15.4702 15.3887 15.4244 15.356L15.0711 15.1034L14.7178 15.356C14.672 15.3887 14.611 15.3443 14.6279 15.2907L14.759 14.8766L14.4096 14.6186C14.3644 14.5853 14.3877 14.5135 14.4439 14.513L14.8782 14.5097L15.0156 14.0976C15.0333 14.0443 15.1087 14.0443 15.1266 14.0976Z" fill="#F5F5F5"/>
<path d="M15.1266 16.2531L15.264 16.6651L15.6983 16.6684C15.7545 16.6689 15.7778 16.7406 15.7326 16.7741L15.3832 17.0321L15.5143 17.4462C15.5313 17.4997 15.4702 17.5442 15.4244 17.5114L15.0711 17.2589L14.7178 17.5114C14.672 17.5441 14.611 17.4997 14.6279 17.4462L14.759 17.0321L14.4096 16.7741C14.3644 16.7406 14.3877 16.6689 14.4439 16.6684L14.8782 16.6651L15.0156 16.2531C15.0333 16.1998 15.1087 16.1998 15.1266 16.2531Z" fill="#F5F5F5"/>
</svg>
